<svg xmlns='http://www.w3.org/2000/svg' style='font-size:initial;' viewBox="0 0 344.477 344.477">
<path d="M136.239,226.239L208.239,226.239L208.239,139.839L186.639,118.239L136.239,118.239Z"  style="fill:none;stroke-width:2.16;stroke:rgb(0,0,0);" />
<path d="M186.639,118.239L186.639,139.839L208.239,139.839"  style="fill:none;stroke-width:2.16;stroke:rgb(0,0,0);" />
<text x="172.239" y="172.239" text-anchor="middle" fill="rgb(0,0,0)" dominant-baseline="central">file</text>
<path d="M172.239,118.239L172.239,2.16"  style="fill:none;stroke-width:2.16;stroke:rgb(0,0,0);" />
<path d="M172.239,118.239L201.773,4.74388"  style="fill:none;stroke-width:2.16;stroke:rgb(0,0,0);" />
<path d="M197.439,129.039L230.409,12.417"  style="fill:none;stroke-width:2.16;stroke:rgb(0,0,0);" />
<path d="M197.439,129.039L257.278,24.9462"  style="fill:none;stroke-width:2.16;stroke:rgb(0,0,0);" />
<path d="M197.439,129.039L281.563,41.9509"  style="fill:none;stroke-width:2.16;stroke:rgb(0,0,0);" />
<path d="M197.439,129.039L302.527,62.9142"  style="fill:none;stroke-width:2.16;stroke:rgb(0,0,0);" />
<path d="M208.239,172.239L319.531,87.1994"  style="fill:none;stroke-width:2.16;stroke:rgb(0,0,0);" />
<path d="M208.239,172.239L332.06,114.068"  style="fill:none;stroke-width:2.16;stroke:rgb(0,0,0);" />
<path d="M208.239,172.239L339.734,142.705"  style="fill:none;stroke-width:2.16;stroke:rgb(0,0,0);" />
<path d="M208.239,172.239L342.317,172.239"  style="fill:none;stroke-width:2.16;stroke:rgb(0,0,0);" />
<path d="M208.239,172.239L339.734,201.773"  style="fill:none;stroke-width:2.16;stroke:rgb(0,0,0);" />
<path d="M208.239,172.239L332.06,230.409"  style="fill:none;stroke-width:2.16;stroke:rgb(0,0,0);" />
<path d="M208.239,172.239L319.531,257.278"  style="fill:none;stroke-width:2.16;stroke:rgb(0,0,0);" />
<path d="M208.239,226.239L302.527,281.563"  style="fill:none;stroke-width:2.16;stroke:rgb(0,0,0);" />
<path d="M208.239,226.239L281.563,302.527"  style="fill:none;stroke-width:2.16;stroke:rgb(0,0,0);" />
<path d="M208.239,226.239L257.278,319.531"  style="fill:none;stroke-width:2.16;stroke:rgb(0,0,0);" />
<path d="M208.239,226.239L230.409,332.06"  style="fill:none;stroke-width:2.16;stroke:rgb(0,0,0);" />
<path d="M172.239,226.239L201.773,339.734"  style="fill:none;stroke-width:2.16;stroke:rgb(0,0,0);" />
<path d="M172.239,226.239L172.239,342.317"  style="fill:none;stroke-width:2.16;stroke:rgb(0,0,0);" />
<path d="M172.239,226.239L142.705,339.734"  style="fill:none;stroke-width:2.16;stroke:rgb(0,0,0);" />
<path d="M136.239,226.239L114.068,332.06"  style="fill:none;stroke-width:2.16;stroke:rgb(0,0,0);" />
<path d="M136.239,226.239L87.1994,319.531"  style="fill:none;stroke-width:2.16;stroke:rgb(0,0,0);" />
<path d="M136.239,226.239L62.9142,302.527"  style="fill:none;stroke-width:2.16;stroke:rgb(0,0,0);" />
<path d="M136.239,226.239L41.9509,281.563"  style="fill:none;stroke-width:2.16;stroke:rgb(0,0,0);" />
<path d="M136.239,172.239L24.9462,257.278"  style="fill:none;stroke-width:2.16;stroke:rgb(0,0,0);" />
<path d="M136.239,172.239L12.417,230.409"  style="fill:none;stroke-width:2.16;stroke:rgb(0,0,0);" />
<path d="M136.239,172.239L4.74388,201.773"  style="fill:none;stroke-width:2.16;stroke:rgb(0,0,0);" />
<path d="M136.239,172.239L2.16,172.239"  style="fill:none;stroke-width:2.16;stroke:rgb(0,0,0);" />
<path d="M136.239,172.239L4.74388,142.705"  style="fill:none;stroke-width:2.16;stroke:rgb(0,0,0);" />
<path d="M136.239,172.239L12.417,114.068"  style="fill:none;stroke-width:2.16;stroke:rgb(0,0,0);" />
<path d="M136.239,172.239L24.9462,87.1994"  style="fill:none;stroke-width:2.16;stroke:rgb(0,0,0);" />
<path d="M136.239,118.239L41.9509,62.9142"  style="fill:none;stroke-width:2.16;stroke:rgb(0,0,0);" />
<path d="M136.239,118.239L62.9142,41.9509"  style="fill:none;stroke-width:2.16;stroke:rgb(0,0,0);" />
<path d="M136.239,118.239L87.1994,24.9462"  style="fill:none;stroke-width:2.16;stroke:rgb(0,0,0);" />
<path d="M136.239,118.239L114.068,12.417"  style="fill:none;stroke-width:2.16;stroke:rgb(0,0,0);" />
<path d="M172.239,118.239L142.705,4.74388"  style="fill:none;stroke-width:2.16;stroke:rgb(0,0,0);" />
</svg>