<svg xmlns='http://www.w3.org/2000/svg' style='font-size:initial;' viewBox="0 0 344.477 344.477">
<path d="M118.239,147.039L118.239,197.439A54 10.8 0 0 0 226.239 197.439L226.239,147.039A54 10.8 0 0 0 118.239 147.039A54 10.8 0 0 0 226.239 147.039"  style="fill:none;stroke-width:2.16;stroke:rgb(0,0,0);" />
<text x="172.239" y="180.339" text-anchor="middle" fill="rgb(0,0,0)" dominant-baseline="central">cylinder</text>
<path d="M172.239,136.239L172.239,2.16"  style="fill:none;stroke-width:2.16;stroke:rgb(0,0,0);" />
<path d="M172.239,136.239L201.773,4.74388"  style="fill:none;stroke-width:2.16;stroke:rgb(0,0,0);" />
<path d="M172.239,136.239L230.409,12.417"  style="fill:none;stroke-width:2.16;stroke:rgb(0,0,0);" />
<path d="M172.239,136.239L257.278,24.9462"  style="fill:none;stroke-width:2.16;stroke:rgb(0,0,0);" />
<path d="M226.239,147.039L281.563,41.9509"  style="fill:none;stroke-width:2.16;stroke:rgb(0,0,0);" />
<path d="M226.239,147.039L302.527,62.9142"  style="fill:none;stroke-width:2.16;stroke:rgb(0,0,0);" />
<path d="M226.239,147.039L319.531,87.1994"  style="fill:none;stroke-width:2.16;stroke:rgb(0,0,0);" />
<path d="M226.239,147.039L332.06,114.068"  style="fill:none;stroke-width:2.16;stroke:rgb(0,0,0);" />
<path d="M226.239,172.239L339.734,142.705"  style="fill:none;stroke-width:2.16;stroke:rgb(0,0,0);" />
<path d="M226.239,172.239L342.317,172.239"  style="fill:none;stroke-width:2.16;stroke:rgb(0,0,0);" />
<path d="M226.239,172.239L339.734,201.773"  style="fill:none;stroke-width:2.16;stroke:rgb(0,0,0);" />
<path d="M226.239,197.439L332.06,230.409"  style="fill:none;stroke-width:2.16;stroke:rgb(0,0,0);" />
<path d="M226.239,197.439L319.531,257.278"  style="fill:none;stroke-width:2.16;stroke:rgb(0,0,0);" />
<path d="M226.239,197.439L302.527,281.563"  style="fill:none;stroke-width:2.16;stroke:rgb(0,0,0);" />
<path d="M226.239,197.439L281.563,302.527"  style="fill:none;stroke-width:2.16;stroke:rgb(0,0,0);" />
<path d="M172.239,208.239L257.278,319.531"  style="fill:none;stroke-width:2.16;stroke:rgb(0,0,0);" />
<path d="M172.239,208.239L230.409,332.06"  style="fill:none;stroke-width:2.16;stroke:rgb(0,0,0);" />
<path d="M172.239,208.239L201.773,339.734"  style="fill:none;stroke-width:2.16;stroke:rgb(0,0,0);" />
<path d="M172.239,208.239L172.239,342.317"  style="fill:none;stroke-width:2.16;stroke:rgb(0,0,0);" />
<path d="M172.239,208.239L142.705,339.734"  style="fill:none;stroke-width:2.16;stroke:rgb(0,0,0);" />
<path d="M172.239,208.239L114.068,332.06"  style="fill:none;stroke-width:2.16;stroke:rgb(0,0,0);" />
<path d="M172.239,208.239L87.1994,319.531"  style="fill:none;stroke-width:2.16;stroke:rgb(0,0,0);" />
<path d="M118.239,197.439L62.9142,302.527"  style="fill:none;stroke-width:2.16;stroke:rgb(0,0,0);" />
<path d="M118.239,197.439L41.9509,281.563"  style="fill:none;stroke-width:2.16;stroke:rgb(0,0,0);" />
<path d="M118.239,197.439L24.9462,257.278"  style="fill:none;stroke-width:2.16;stroke:rgb(0,0,0);" />
<path d="M118.239,197.439L12.417,230.409"  style="fill:none;stroke-width:2.16;stroke:rgb(0,0,0);" />
<path d="M118.239,172.239L4.74388,201.773"  style="fill:none;stroke-width:2.16;stroke:rgb(0,0,0);" />
<path d="M118.239,172.239L2.16,172.239"  style="fill:none;stroke-width:2.16;stroke:rgb(0,0,0);" />
<path d="M118.239,172.239L4.74388,142.705"  style="fill:none;stroke-width:2.16;stroke:rgb(0,0,0);" />
<path d="M118.239,147.039L12.417,114.068"  style="fill:none;stroke-width:2.16;stroke:rgb(0,0,0);" />
<path d="M118.239,147.039L24.9462,87.1994"  style="fill:none;stroke-width:2.16;stroke:rgb(0,0,0);" />
<path d="M118.239,147.039L41.9509,62.9142"  style="fill:none;stroke-width:2.16;stroke:rgb(0,0,0);" />
<path d="M118.239,147.039L62.9142,41.9509"  style="fill:none;stroke-width:2.16;stroke:rgb(0,0,0);" />
<path d="M172.239,136.239L87.1994,24.9462"  style="fill:none;stroke-width:2.16;stroke:rgb(0,0,0);" />
<path d="M172.239,136.239L114.068,12.417"  style="fill:none;stroke-width:2.16;stroke:rgb(0,0,0);" />
<path d="M172.239,136.239L142.705,4.74388"  style="fill:none;stroke-width:2.16;stroke:rgb(0,0,0);" />
</svg>