<svg xmlns='http://www.w3.org/2000/svg' style='font-size:initial;' viewBox="0 0 354.154 148.32">
<path d="M2.16,146.16L8.64,146.16L8.64,2.16L2.16,2.16Z"  style="fill:rgb(200,157,199);stroke-width:2.16;stroke:rgb(0,0,0);" />
<path d="M15.12,146.16L21.6,146.16L21.6,2.16L15.12,2.16Z"  style="fill:rgb(159,170,210);stroke-width:2.16;stroke:rgb(0,0,0);" />
<path d="M28.08,146.16L34.56,146.16L34.56,2.16L28.08,2.16Z"  style="fill:rgb(114,182,192);stroke-width:2.16;stroke:rgb(0,0,0);" />
<path d="M41.04,146.16L47.52,146.16L47.52,2.16L41.04,2.16Z"  style="fill:rgb(119,184,157);stroke-width:2.16;stroke:rgb(0,0,0);" />
<path d="M54,146.16L60.48,146.16L60.48,2.16L54,2.16Z"  style="fill:rgb(160,178,128);stroke-width:2.16;stroke:rgb(0,0,0);" />
<path d="M66.96,146.16L73.44,146.16L73.44,2.16L66.96,2.16Z"  style="fill:rgb(197,166,133);stroke-width:2.16;stroke:rgb(0,0,0);" />
<path d="M79.92,146.16L86.4,146.16L86.4,2.16L79.92,2.16Z"  style="fill:rgb(213,156,167);stroke-width:2.16;stroke:rgb(0,0,0);" />
<polygon points="92.88,74.16 104.4,69.84 104.4,78.48" style="fill:rgb(0,0,0)"/>
<path d="M98.64,74.16L164.88,74.16"  style="fill:none;stroke-width:2.16;stroke:rgb(0,0,0);" />
<path d="M171.36,109.44L351.994,109.44L351.994,38.88L171.36,38.88Z"  style="fill:none;stroke-width:0;stroke:rgb(0,0,0);" />
<text x="174.24" y="54" text-anchor="start" fill="rgb(0,0,0)" dominant-baseline="central">Lines should all be</text>
<text x="174.24" y="74.16" text-anchor="start" fill="rgb(0,0,0)" dominant-baseline="central">the same width.</text>
<text x="174.24" y="94.32" text-anchor="start" fill="rgb(0,0,0)" dominant-baseline="central">No round-off errors.</text>
</svg>