<svg xmlns='http://www.w3.org/2000/svg' style='font-size:initial;' width="366" height="306" viewBox="0 0 489.042 409.948">
<path d="M2.16,206.931L110.16,206.931L110.16,134.931L2.16,134.931Z"  style="fill:none;stroke-width:2.16;stroke:rgb(0,0,0);" />
<text x="56.16" y="170.931" text-anchor="middle" fill="rgb(0,0,0)" dominant-baseline="central">One</text>
<polygon points="254.16,170.931 242.64,175.251 242.64,166.611" style="fill:rgb(0,0,0)"/>
<path d="M110.16,170.931L248.4,170.931"  style="fill:none;stroke-width:2.16;stroke:rgb(0,0,0);" />
<text x="182.16" y="159.231" text-anchor="middle" font-weight="bold" fill="rgb(0,0,0)" dominant-baseline="central">Bold</text>
<text x="182.16" y="182.631" text-anchor="middle" font-style="italic" fill="rgb(0,0,0)" dominant-baseline="central">Italic</text>
<circle cx="290.16" cy="170.931" r="36"  style="fill:none;stroke-width:2.16;stroke:rgb(0,0,0);" />
<text x="290.16" y="170.931" text-anchor="middle" fill="rgb(0,0,0)" dominant-baseline="central">Two</text>
<circle cx="426.635" cy="352.038" r="55.7497"  style="fill:none;stroke-width:2.16;stroke:rgb(0,0,0);" />
<text x="426.635" y="352.038" text-anchor="middle" font-style="italic" font-weight="bold" fill="rgb(0,0,0)" dominant-baseline="central">Bold-Italic</text>
<polygon points="393.084,307.515 382.701,300.914 389.601,295.715" style="fill:rgb(0,0,0)"/>
<path d="M311.825,199.681L389.617,302.915"  style="fill:none;stroke-width:2.16;stroke:rgb(0,0,0);" />
<text x="352.454" y="241.898" text-anchor="middle" fill="rgb(0,0,0)" transform="rotate(53 352.454,253.598)" dominant-baseline="central">above</text>
<text x="352.454" y="265.298" text-anchor="middle" fill="rgb(0,0,0)" transform="rotate(53 352.454,253.598)" dominant-baseline="central">below</text>
<circle cx="463.877" cy="25.1645" r="23.0045"  style="fill:none;stroke-width:2.16;stroke:rgb(0,0,0);" />
<text x="463.877" y="25.1645" text-anchor="middle" fill="rgb(0,0,0)" dominant-baseline="central">C2</text>
<polygon points="446.255,39.9515 440.207,50.6657 434.653,44.0471" style="fill:rgb(0,0,0)"/>
<path d="M317.738,147.79L441.842,43.654"  style="fill:none;stroke-width:2.16;stroke:rgb(0,0,0);" />
<text x="381.996" y="82.1708" text-anchor="middle" fill="rgb(0,0,0)" transform="rotate(-40 381.996,93.8708)" dominant-baseline="central">above</text>
<text x="381.996" y="105.571" text-anchor="middle" fill="rgb(0,0,0)" transform="rotate(-40 381.996,93.8708)" dominant-baseline="central">below </text>
<circle cx="212.6" cy="384.026" r="23.0045"  style="fill:none;stroke-width:2.16;stroke:rgb(0,0,0);" />
<text x="212.6" y="384.026" text-anchor="middle" fill="rgb(0,0,0)" dominant-baseline="central">C3</text>
<polygon points="220.468,362.409 220.348,350.106 228.467,353.061" style="fill:rgb(0,0,0)"/>
<path d="M222.438,356.996L277.847,204.759"  style="fill:none;stroke-width:2.16;stroke:rgb(0,0,0);" />
<text x="249.157" y="271.884" text-anchor="end" fill="rgb(0,0,0)" transform="rotate(-70 249.157,283.584)" dominant-baseline="central">above-rjust</text>
<text x="249.157" y="295.284" text-anchor="end" fill="rgb(0,0,0)" transform="rotate(-70 249.157,283.584)" dominant-baseline="central">below-rjust</text>
</svg>