<svg xmlns='http://www.w3.org/2000/svg' style='font-size:initial;' viewBox="0 0 652.32 182.25">
<polygon points="146.16,36.09 138.442,38.9844 138.442,33.1956" style="fill:rgb(0,0,0)"/>
<path d="M2.16,36.09L142.301,36.09"  style="fill:none;stroke-width:1.4472;stroke:rgb(0,0,0);" />
<text x="74.16" y="22.4046" text-anchor="middle" fill="rgb(0,0,0)" font-size="125%" dominant-baseline="central">Big</text>
<text x="74.16" y="45.2394" text-anchor="middle" fill="rgb(0,0,0)" font-size="80%" dominant-baseline="central">Small</text>
<text x="168.566" y="26.01" text-anchor="middle" fill="rgb(0,0,0)" dominant-baseline="central">thin</text>
<text x="168.566" y="46.17" text-anchor="middle" fill="rgb(0,0,0)" dominant-baseline="central">line</text>
<polygon points="406.973,36.09 389.693,42.57 389.693,29.61" style="fill:rgb(0,0,0)"/>
<path d="M262.973,36.09L398.333,36.09"  style="fill:none;stroke-width:3.24;stroke:rgb(0,0,0);" />
<text x="334.973" y="17.91" text-anchor="middle" fill="rgb(0,0,0)" font-size="156.25%" dominant-baseline="central">Big Big</text>
<text x="334.973" y="44.9712" text-anchor="middle" fill="rgb(0,0,0)" font-size="64%" dominant-baseline="central">Small Small</text>
<text x="433.757" y="26.01" text-anchor="middle" fill="rgb(0,0,0)" dominant-baseline="central">thick</text>
<text x="433.757" y="46.17" text-anchor="middle" fill="rgb(0,0,0)" dominant-baseline="central">line</text>
<path d="M2.16,180.09L110.16,180.09L110.16,108.09L2.16,108.09Z"  style="fill:none;stroke-width:3.24;stroke:rgb(0,0,0);" />
<text x="56.16" y="144.09" text-anchor="middle" fill="rgb(0,0,0)" dominant-baseline="central">Thick</text>
<path d="M182.16,180.09L290.16,180.09L290.16,108.09L182.16,108.09Z"  style="fill:none;stroke-width:4.86;stroke:rgb(0,0,0);" />
<text x="236.16" y="134.01" text-anchor="middle" fill="rgb(0,0,0)" dominant-baseline="central">Thick</text>
<text x="236.16" y="154.17" text-anchor="middle" fill="rgb(0,0,0)" dominant-baseline="central">Thick</text>
<path d="M362.16,180.09L470.16,180.09L470.16,108.09L362.16,108.09Z"  style="fill:none;stroke-width:1.4472;stroke:rgb(0,0,0);" />
<text x="416.16" y="144.09" text-anchor="middle" fill="rgb(0,0,0)" dominant-baseline="central">Thin</text>
<path d="M542.16,180.09L650.16,180.09L650.16,108.09L542.16,108.09Z"  style="fill:none;stroke-width:0.969624;stroke:rgb(0,0,0);" />
<text x="596.16" y="134.01" text-anchor="middle" fill="rgb(0,0,0)" dominant-baseline="central">Thin</text>
<text x="596.16" y="154.17" text-anchor="middle" fill="rgb(0,0,0)" dominant-baseline="central">Thin</text>
</svg>