<svg xmlns='http://www.w3.org/2000/svg' style='font-size:initial;' viewBox="0 0 486.943 642.675">
<path d="M216.642,414.687L196.638,301.237L246.521,330.037L287.818,271.058L257.812,441.233L238.112,387.106"  style="fill:none;stroke-width:4.86;stroke-linejoin:round;stroke:rgb(0,0,255);" />
<text x="242.228" y="356.145" text-anchor="middle" fill="rgb(0,0,255)" dominant-baseline="central">+</text>
<path d="M196.638,271.058L287.818,271.058L287.818,441.233L196.638,441.233Z"  style="fill:none;stroke-width:1.4472;stroke-linejoin:round;stroke:rgb(128,128,128);stroke-dasharray:7.2,7.2;" />
<circle cx="242.228" cy="186.018" r="20.3708"  style="fill:none;stroke-width:2.16;stroke:rgb(0,0,0);" />
<text x="242.228" y="186.018" text-anchor="middle" fill="rgb(0,0,0)" dominant-baseline="central">.n</text>
<polygon points="242.228,271.058 239.334,263.339 245.123,263.339" style="fill:rgb(0,0,0)"/>
<path d="M242.228,206.389L242.228,267.199"  style="fill:none;stroke-width:1.4472;stroke:rgb(0,0,0);" />
<circle cx="286.248" cy="106.774" r="34.6879"  style="fill:none;stroke-width:2.16;stroke:rgb(0,0,0);" />
<text x="286.248" y="106.774" text-anchor="middle" fill="rgb(0,0,0)" dominant-baseline="central">.north</text>
<polygon points="242.228,271.058 241.43,262.853 247.022,264.352" style="fill:rgb(0,0,0)"/>
<path d="M277.27,140.28L243.227,267.33"  style="fill:none;stroke-width:1.4472;stroke:rgb(0,0,0);" />
<circle cx="284.748" cy="197.412" r="19.1138"  style="fill:none;stroke-width:2.16;stroke:rgb(0,0,0);" />
<text x="284.748" y="197.412" text-anchor="middle" fill="rgb(0,0,0)" dominant-baseline="central">.t</text>
<polygon points="242.228,271.058 243.581,262.926 248.594,265.821" style="fill:rgb(0,0,0)"/>
<path d="M275.191,213.965L244.158,267.716"  style="fill:none;stroke-width:1.4472;stroke:rgb(0,0,0);" />
<circle cx="198.209" cy="106.774" r="26.65"  style="fill:none;stroke-width:2.16;stroke:rgb(0,0,0);" />
<text x="198.209" y="106.774" text-anchor="middle" fill="rgb(0,0,0)" dominant-baseline="central">.top</text>
<polygon points="242.228,271.058 237.435,264.352 243.026,262.853" style="fill:rgb(0,0,0)"/>
<path d="M205.106,132.516L241.229,267.33"  style="fill:none;stroke-width:1.4472;stroke:rgb(0,0,0);" />
<circle cx="327.906" cy="230.97" r="23.9293"  style="fill:none;stroke-width:2.16;stroke:rgb(0,0,0);" />
<text x="327.906" y="230.97" text-anchor="middle" fill="rgb(0,0,0)" dominant-baseline="central">.ne</text>
<polygon points="287.818,271.058 291.23,263.553 295.323,267.647" style="fill:rgb(0,0,0)"/>
<path d="M310.986,247.89L290.547,268.329"  style="fill:none;stroke-width:1.4472;stroke:rgb(0,0,0);" />
<circle cx="374.677" cy="283.262" r="20.1028"  style="fill:none;stroke-width:2.16;stroke:rgb(0,0,0);" />
<text x="374.677" y="283.262" text-anchor="middle" fill="rgb(0,0,0)" dominant-baseline="central">.e</text>
<polygon points="287.818,356.145 291.871,348.967 295.592,353.401" style="fill:rgb(0,0,0)"/>
<path d="M359.277,296.184L290.775,353.665"  style="fill:none;stroke-width:1.4472;stroke:rgb(0,0,0);" />
<circle cx="452.102" cy="312.126" r="32.6808"  style="fill:none;stroke-width:2.16;stroke:rgb(0,0,0);" />
<text x="452.102" y="312.126" text-anchor="middle" fill="rgb(0,0,0)" dominant-baseline="central">.right</text>
<polygon points="287.818,356.145 294.525,351.352 296.023,356.943" style="fill:rgb(0,0,0)"/>
<path d="M420.535,320.584L291.546,355.146"  style="fill:none;stroke-width:1.4472;stroke:rgb(0,0,0);" />
<circle cx="336.307" cy="443.799" r="28.2359"  style="fill:none;stroke-width:2.16;stroke:rgb(0,0,0);" />
<text x="336.307" y="443.799" text-anchor="middle" fill="rgb(0,0,0)" dominant-baseline="central">.end</text>
<polygon points="238.112,387.106 246.243,388.459 243.349,393.472" style="fill:rgb(0,0,0)"/>
<path d="M311.854,429.681L241.454,389.036"  style="fill:none;stroke-width:1.4472;stroke:rgb(0,0,0);" />
<circle cx="297.663" cy="497.064" r="23.1786"  style="fill:none;stroke-width:2.16;stroke:rgb(0,0,0);" />
<text x="297.663" y="497.064" text-anchor="middle" fill="rgb(0,0,0)" dominant-baseline="central">.se</text>
<polygon points="287.818,441.233 292.009,448.331 286.308,449.336" style="fill:rgb(0,0,0)"/>
<path d="M293.638,474.238L288.489,445.033"  style="fill:none;stroke-width:1.4472;stroke:rgb(0,0,0);" />
<circle cx="242.228" cy="526.272" r="19.728"  style="fill:none;stroke-width:2.16;stroke:rgb(0,0,0);" />
<text x="242.228" y="526.272" text-anchor="middle" fill="rgb(0,0,0)" dominant-baseline="central">.s</text>
<polygon points="242.228,441.233 245.123,448.951 239.334,448.951" style="fill:rgb(0,0,0)"/>
<path d="M242.228,506.544L242.228,445.092"  style="fill:none;stroke-width:1.4472;stroke:rgb(0,0,0);" />
<circle cx="198.209" cy="605.516" r="34.9993"  style="fill:none;stroke-width:2.16;stroke:rgb(0,0,0);" />
<text x="198.209" y="605.516" text-anchor="middle" fill="rgb(0,0,0)" dominant-baseline="central">.south</text>
<polygon points="242.228,441.233 243.026,449.437 237.435,447.939" style="fill:rgb(0,0,0)"/>
<path d="M207.267,571.709L241.229,444.96"  style="fill:none;stroke-width:1.4472;stroke:rgb(0,0,0);" />
<circle cx="183.696" cy="524.825" r="26.65"  style="fill:none;stroke-width:2.16;stroke:rgb(0,0,0);" />
<text x="183.696" y="524.825" text-anchor="middle" fill="rgb(0,0,0)" dominant-baseline="central">.bot</text>
<polygon points="242.228,441.233 240.172,449.215 235.43,445.895" style="fill:rgb(0,0,0)"/>
<path d="M198.982,502.994L240.015,444.394"  style="fill:none;stroke-width:1.4472;stroke:rgb(0,0,0);" />
<circle cx="294.581" cy="585.072" r="40.9125"  style="fill:none;stroke-width:2.16;stroke:rgb(0,0,0);" />
<text x="294.581" y="585.072" text-anchor="middle" fill="rgb(0,0,0)" dominant-baseline="central">.bottom</text>
<polygon points="242.228,441.233 247.588,447.496 242.148,449.475" style="fill:rgb(0,0,0)"/>
<path d="M280.589,546.627L243.548,444.859"  style="fill:none;stroke-width:1.4472;stroke:rgb(0,0,0);" />
<circle cx="156.55" cy="481.321" r="24.7872"  style="fill:none;stroke-width:2.16;stroke:rgb(0,0,0);" />
<text x="156.55" y="481.321" text-anchor="middle" fill="rgb(0,0,0)" dominant-baseline="central">.sw</text>
<polygon points="196.638,441.233 193.227,448.737 189.133,444.644" style="fill:rgb(0,0,0)"/>
<path d="M174.077,463.793L193.909,443.961"  style="fill:none;stroke-width:1.4472;stroke:rgb(0,0,0);" />
<circle cx="98.4429" cy="299.452" r="21.5259"  style="fill:none;stroke-width:2.16;stroke:rgb(0,0,0);" />
<text x="98.4429" y="299.452" text-anchor="middle" fill="rgb(0,0,0)" dominant-baseline="central">.w</text>
<polygon points="196.638,356.145 188.506,354.793 191.401,349.779" style="fill:rgb(0,0,0)"/>
<path d="M117.085,310.215L193.296,354.216"  style="fill:none;stroke-width:1.4472;stroke:rgb(0,0,0);" />
<circle cx="29.143" cy="326.611" r="26.983"  style="fill:none;stroke-width:2.16;stroke:rgb(0,0,0);" />
<text x="29.143" y="326.611" text-anchor="middle" fill="rgb(0,0,0)" dominant-baseline="central">.left</text>
<polygon points="196.638,356.145 188.534,357.655 189.539,351.955" style="fill:rgb(0,0,0)"/>
<path d="M55.7161,331.297L192.837,355.475"  style="fill:none;stroke-width:1.4472;stroke:rgb(0,0,0);" />
<circle cx="75.4492" cy="427.039" r="32.0697"  style="fill:none;stroke-width:2.16;stroke:rgb(0,0,0);" />
<text x="75.4492" y="427.039" text-anchor="middle" fill="rgb(0,0,0)" dominant-baseline="central">.start</text>
<polygon points="216.642,414.687 209.205,418.243 208.701,412.476" style="fill:rgb(0,0,0)"/>
<path d="M107.397,424.244L212.798,415.023"  style="fill:none;stroke-width:1.4472;stroke:rgb(0,0,0);" />
<circle cx="156.55" cy="230.97" r="25.5701"  style="fill:none;stroke-width:2.16;stroke:rgb(0,0,0);" />
<text x="156.55" y="230.97" text-anchor="middle" fill="rgb(0,0,0)" dominant-baseline="central">.nw</text>
<polygon points="196.638,271.058 189.133,267.647 193.227,263.553" style="fill:rgb(0,0,0)"/>
<path d="M174.631,249.051L193.909,268.329"  style="fill:none;stroke-width:1.4472;stroke:rgb(0,0,0);" />
<circle cx="205.545" cy="219.242" r="19.9142"  style="fill:none;stroke-width:2.16;stroke:rgb(0,0,0);" />
<text x="205.545" y="219.242" text-anchor="middle" fill="rgb(0,0,0)" dominant-baseline="central">.c</text>
<path d="M210.699,238.478L223.887,287.694"  style="fill:none;stroke-width:1.4472;stroke:rgb(0,0,0);" />
<polygon points="242.228,356.145 237.435,349.439 243.026,347.941" style="fill:rgb(0,0,0)"/>
<path d="M223.887,287.694L241.229,352.418"  style="fill:none;stroke-width:1.4472;stroke:rgb(0,0,0);" />
<circle cx="418.032" cy="420.133" r="38.4629"  style="fill:none;stroke-width:2.16;stroke:rgb(0,0,0);" />
<text x="418.032" y="420.133" text-anchor="middle" fill="rgb(0,0,0)" dominant-baseline="central">.center</text>
<path d="M381.889,406.978L330.13,388.139"  style="fill:none;stroke-width:1.4472;stroke:rgb(0,0,0);" />
<polygon points="242.228,356.145 250.471,356.065 248.491,361.505" style="fill:rgb(0,0,0)"/>
<path d="M330.13,388.139L245.855,357.465"  style="fill:none;stroke-width:1.4472;stroke:rgb(0,0,0);" />
<circle cx="151.663" cy="389.108" r="20.88"  style="fill:none;stroke-width:2.16;stroke:rgb(0,0,0);" />
<text x="151.663" y="389.108" text-anchor="middle" fill="rgb(0,0,0)" dominant-baseline="central">&lambda;</text>
<path d="M171.283,381.967L196.945,372.627"  style="fill:none;stroke-width:2.16;stroke:rgb(0,0,0);" />
<polygon points="242.228,356.145 235.965,361.505 233.985,356.065" style="fill:rgb(0,0,0)"/>
<path d="M196.945,372.627L238.602,357.465"  style="fill:none;stroke-width:1.4472;stroke:rgb(0,0,0);" />
<text x="243.471" y="22.95" text-anchor="middle" fill="rgb(0,0,0)" font-size="156.25%" dominant-baseline="central">21 Names For 11 Boundary Points</text>
</svg>