<svg xmlns='http://www.w3.org/2000/svg' style='font-size:initial;' viewBox="0 0 587.866 292.32">
<path d="M81.7056,88.56L124.906,88.56L124.906,59.76L81.7056,59.76Z"  style="fill:none;stroke-width:2.16;stroke:rgb(0,0,0);" />
<path d="M81.7056,117.36L124.906,117.36L124.906,88.56L81.7056,88.56Z"  style="fill:none;stroke-width:2.16;stroke:rgb(0,0,0);" />
<path d="M81.7056,146.16L124.906,146.16L124.906,117.36L81.7056,117.36Z"  style="fill:none;stroke-width:2.16;stroke:rgb(0,0,0);" />
<path d="M81.7056,232.56L124.906,232.56L124.906,146.16L81.7056,146.16Z"  style="fill:none;stroke-width:2.16;stroke:rgb(0,0,0);" />
<text x="103.306" y="169.2" text-anchor="middle" fill="rgb(0,0,0)" dominant-baseline="central">.</text>
<text x="103.306" y="189.36" text-anchor="middle" fill="rgb(0,0,0)" dominant-baseline="central">.</text>
<text x="103.306" y="209.52" text-anchor="middle" fill="rgb(0,0,0)" dominant-baseline="central">.</text>
<path d="M81.7056,261.36L124.906,261.36L124.906,232.56L81.7056,232.56Z"  style="fill:none;stroke-width:2.16;stroke:rgb(0,0,0);" />
<path d="M81.7056,290.16L124.906,290.16L124.906,261.36L81.7056,261.36Z"  style="fill:none;stroke-width:2.16;stroke:rgb(0,0,0);" />
<text x="38.5056" y="74.16" text-anchor="middle" fill="rgb(0,0,0)" dominant-baseline="central">hashtab:</text>
<path d="M182.506,30.96L254.506,30.96L254.506,2.16L182.506,2.16Z"  style="fill:none;stroke-width:2.16;stroke:rgb(0,0,0);" />
<text x="218.506" y="16.56" text-anchor="middle" fill="rgb(0,0,0)" dominant-baseline="central">...</text>
<path d="M254.506,30.96L283.306,30.96L283.306,2.16L254.506,2.16Z"  style="fill:none;stroke-width:2.16;stroke:rgb(0,0,0);" />
<text x="268.906" y="16.56" text-anchor="middle" fill="rgb(0,0,0)" dominant-baseline="central">n1</text>
<path d="M283.306,30.96L326.506,30.96L326.506,2.16L283.306,2.16Z"  style="fill:none;stroke-width:2.16;stroke:rgb(0,0,0);" />
<text x="304.906" y="16.56" text-anchor="middle" fill="rgb(0,0,0)" dominant-baseline="central">d1</text>
<path d="M326.506,30.96L384.106,30.96L384.106,2.16L326.506,2.16Z"  style="fill:none;stroke-width:2.16;stroke:rgb(0,0,0);" />
<text x="355.306" y="16.56" text-anchor="middle" fill="rgb(0,0,0)" dominant-baseline="central">n3</text>
<path d="M384.106,30.96L427.306,30.96L427.306,2.16L384.106,2.16Z"  style="fill:none;stroke-width:2.16;stroke:rgb(0,0,0);" />
<text x="405.706" y="16.56" text-anchor="middle" fill="rgb(0,0,0)" dominant-baseline="central">d3</text>
<path d="M427.306,30.96L484.906,30.96L484.906,2.16L427.306,2.16Z"  style="fill:none;stroke-width:2.16;stroke:rgb(0,0,0);" />
<text x="456.106" y="16.56" text-anchor="middle" fill="rgb(0,0,0)" dominant-baseline="central">...</text>
<path d="M484.906,30.96L556.906,30.96L556.906,2.16L484.906,2.16Z"  style="fill:none;stroke-width:2.16;stroke:rgb(0,0,0);" />
<text x="520.906" y="16.56" text-anchor="middle" fill="rgb(0,0,0)" dominant-baseline="central">n2</text>
<path d="M556.906,30.96L585.706,30.96L585.706,2.16L556.906,2.16Z"  style="fill:none;stroke-width:2.16;stroke:rgb(0,0,0);" />
<text x="571.306" y="16.56" text-anchor="middle" fill="rgb(0,0,0)" dominant-baseline="central">d2</text>
<polygon points="175.306,102.96 163.786,107.28 163.786,98.64" style="fill:rgb(0,0,0)"/>
<path d="M103.306,102.96L169.546,102.96"  style="fill:none;stroke-width:2.16;stroke:rgb(0,0,0);" />
<path d="M175.306,110.16L196.906,110.16L196.906,95.76L175.306,95.76Z"  style="fill:none;stroke-width:2.16;stroke:rgb(0,0,0);" />
<path d="M175.306,124.56L196.906,124.56L196.906,110.16L175.306,110.16Z"  style="fill:none;stroke-width:2.16;stroke:rgb(0,0,0);" />
<path d="M175.306,138.96L196.906,138.96L196.906,124.56L175.306,124.56Z"  style="fill:none;stroke-width:2.16;stroke:rgb(0,0,0);" />
<polygon points="261.706,30.96 259.049,42.9732 251.805,38.2645" style="fill:rgb(0,0,0)"/>
<path d="M186.106,102.96 L 200.506,102.96 Q 214.906,102.96 236.736,69.3747 L 258.566,35.7894"  style="fill:none;stroke-width:2.16;stroke:rgb(0,0,0);" />
<polygon points="290.506,30.96 287.372,42.8576 280.322,37.8636" style="fill:rgb(0,0,0)"/>
<path d="M186.106,117.36 L 207.706,117.36 Q 229.306,117.36 258.241,76.5102 L 287.176,35.6603"  style="fill:none;stroke-width:2.16;stroke:rgb(0,0,0);" />
<polygon points="258.106,131.76 246.586,136.08 246.586,127.44" style="fill:rgb(0,0,0)"/>
<path d="M186.106,131.76L252.346,131.76"  style="fill:none;stroke-width:2.16;stroke:rgb(0,0,0);" />
<path d="M258.106,138.96L279.706,138.96L279.706,124.56L258.106,124.56Z"  style="fill:none;stroke-width:2.16;stroke:rgb(0,0,0);" />
<path d="M258.106,153.36L279.706,153.36L279.706,138.96L258.106,138.96Z"  style="fill:none;stroke-width:2.16;stroke:rgb(0,0,0);" />
<path d="M258.106,167.76L279.706,167.76L279.706,153.36L258.106,153.36Z"  style="fill:none;stroke-width:2.16;stroke:rgb(0,0,0);" />
<polygon points="492.106,30.96 490.818,43.1958 483.09,39.3318" style="fill:rgb(0,0,0)"/>
<path d="M268.906,131.76 L 283.306,131.76 Q 297.706,131.76 387.706,95.76 Q 477.706,59.76 483.618,47.936 L 489.53,36.1119"  style="fill:none;stroke-width:2.16;stroke:rgb(0,0,0);" />
<polygon points="564.106,30.96 562.818,43.1958 555.09,39.3318" style="fill:rgb(0,0,0)"/>
<path d="M268.906,146.16 L 290.506,146.16 Q 312.106,146.16 430.906,102.96 Q 549.706,59.76 555.618,47.936 L 561.53,36.1119"  style="fill:none;stroke-width:2.16;stroke:rgb(0,0,0);" />
<polygon points="247.306,246.96 235.786,251.28 235.786,242.64" style="fill:rgb(0,0,0)"/>
<path d="M103.306,246.96L241.546,246.96"  style="fill:none;stroke-width:2.16;stroke:rgb(0,0,0);" />
<path d="M247.306,254.16L268.906,254.16L268.906,239.76L247.306,239.76Z"  style="fill:none;stroke-width:2.16;stroke:rgb(0,0,0);" />
<path d="M247.306,268.56L268.906,268.56L268.906,254.16L247.306,254.16Z"  style="fill:none;stroke-width:2.16;stroke:rgb(0,0,0);" />
<path d="M247.306,282.96L268.906,282.96L268.906,268.56L247.306,268.56Z"  style="fill:none;stroke-width:2.16;stroke:rgb(0,0,0);" />
<polygon points="333.706,30.96 335.488,43.1335 327.044,41.304" style="fill:rgb(0,0,0)"/>
<path d="M258.106,246.96 L 272.506,246.96 Q 286.906,246.96 309.696,141.775 L 332.486,36.5894"  style="fill:none;stroke-width:2.16;stroke:rgb(0,0,0);" />
<polygon points="391.306,30.96 391.138,43.2622 383.09,40.1186" style="fill:rgb(0,0,0)"/>
<path d="M258.106,261.36 L 279.706,261.36 Q 301.306,261.36 345.258,148.843 L 389.21,36.3252"  style="fill:none;stroke-width:2.16;stroke:rgb(0,0,0);" />
<text x="441.706" y="246.96" text-anchor="middle" fill="rgb(0,0,0)" dominant-baseline="central">ndblock</text>
<polygon points="310.756,255.96 321.775,250.487 322.656,259.082" style="fill:rgb(0,0,0)"/>
<path d="M398.506,246.96L316.486,255.372"  style="fill:none;stroke-width:2.16;stroke:rgb(0,0,0);stroke-dasharray:7.2,7.2;" />
<text x="139.306" y="16.56" text-anchor="middle" fill="rgb(0,0,0)" dominant-baseline="central">ndtable:</text>
</svg>