<svg xmlns='http://www.w3.org/2000/svg' style='font-size:initial;' viewBox="0 0 214.56 155.52">
<path d="M64.08,81.36L78.48,81.36L78.48,9.36L64.08,9.36Z"  style="fill:none;stroke-width:2.16;stroke:rgb(0,0,0);" />
<path d="M78.48,81.36L92.88,81.36L92.88,9.36L78.48,9.36Z"  style="fill:none;stroke-width:2.16;stroke:rgb(0,0,0);" />
<path d="M92.88,81.36L107.28,81.36L107.28,9.36L92.88,9.36Z"  style="fill:none;stroke-width:2.16;stroke:rgb(0,0,0);" />
<path d="M107.28,81.36L136.08,81.36L136.08,9.36L107.28,9.36Z"  style="fill:none;stroke-width:2.16;stroke:rgb(0,0,0);" />
<text x="121.68" y="45.36" text-anchor="middle" fill="rgb(0,0,0)" dominant-baseline="central">...</text>
<path d="M136.08,81.36L150.48,81.36L150.48,9.36L136.08,9.36Z"  style="fill:none;stroke-width:2.16;stroke:rgb(0,0,0);" />
<path d="M9.36,146.16L38.16,146.16L38.16,117.36L9.36,117.36Z"  style="fill:none;stroke-width:2.16;stroke:rgb(0,0,0);" />
<path d="M43.92,146.16L72.72,146.16L72.72,117.36L43.92,117.36Z"  style="fill:none;stroke-width:2.16;stroke:rgb(0,0,0);" />
<path d="M78.48,146.16L107.28,146.16L107.28,117.36L78.48,117.36Z"  style="fill:none;stroke-width:2.16;stroke:rgb(0,0,0);" />
<text x="141.84" y="131.76" text-anchor="middle" fill="rgb(0,0,0)" dominant-baseline="central">...</text>
<path d="M176.4,146.16L205.2,146.16L205.2,117.36L176.4,117.36Z"  style="fill:none;stroke-width:2.16;stroke:rgb(0,0,0);" />
<polygon points="12.24,117.36 16.2041,105.713 22.8851,111.191" style="fill:rgb(0,0,0)"/>
<path d="M71.28,45.36L15.8923,112.906"  style="fill:none;stroke-width:2.16;stroke:rgb(0,0,0);" />
<polygon points="46.8,117.36 48.4725,105.171 56.0749,109.276" style="fill:rgb(0,0,0)"/>
<path d="M85.68,45.36L49.5369,112.292"  style="fill:none;stroke-width:2.16;stroke:rgb(0,0,0);" />
<polygon points="81.36,117.36 80.0778,105.124 88.4398,107.298" style="fill:rgb(0,0,0)"/>
<path d="M100.08,45.36L82.8094,111.785"  style="fill:none;stroke-width:2.16;stroke:rgb(0,0,0);" />
<polygon points="179.28,117.36 170.264,108.988 177.992,105.124" style="fill:rgb(0,0,0)"/>
<path d="M143.28,45.36L176.704,112.208"  style="fill:none;stroke-width:2.16;stroke:rgb(0,0,0);" />
<path d="M2.16,153.36L212.4,153.36L212.4,2.16L2.16,2.16Z"  style="fill:none;stroke-width:2.16;stroke:rgb(0,0,0);stroke-dasharray:7.2,7.2;" />
</svg>