<svg xmlns='http://www.w3.org/2000/svg' style='font-size:initial;' viewBox="0 0 623.452 284.54">
<path d="M2.16,210.38L146.16,210.38L146.16,66.3805L290.16,66.3805L290.16,282.38L203.76,282.38"  style="fill:none;stroke-width:2.16;stroke-linejoin:round;stroke:rgb(0,0,0);stroke-dasharray:7.2,7.2;" />
<path d="M2.16,210.38 L 74.16,210.38 Q 146.16,210.38 146.16,138.38 Q 146.16,66.3805 218.16,66.3805 Q 290.16,66.3805 290.16,174.38 Q 290.16,282.38 246.96,282.38 L 203.76,282.38"  style="fill:none;stroke-width:2.16;stroke:rgb(0,0,0);" />
<circle cx="290.16" cy="174.38" r="36"  style="fill:rgb(255,255,255);stroke-width:2.16;stroke:rgb(0,0,0);" />
<polygon points="616.972,6.48 606.963,13.6344 604.727,5.2888" style="fill:rgb(0,0,0)"/>
<path d="M326.16,174.38 L 362.16,174.38 Q 398.16,174.38 416.16,143.204 Q 434.16,112.027 459.616,86.5708 Q 485.072,61.115 516.249,43.115 Q 547.426,25.115 579.417,16.5429 L 611.408,7.9708"  style="fill:none;stroke-width:2.16;stroke:rgb(0,0,0);" />
</svg>