<svg xmlns='http://www.w3.org/2000/svg' style='font-size:initial;' viewBox="0 0 231.092 231.092">
<ellipse cx="115.546" cy="115.546" rx="54" ry="36"  style="fill:none;stroke-width:2.16;stroke:rgb(0,0,0);" />
<text x="115.546" y="115.546" text-anchor="middle" fill="rgb(0,0,0)" dominant-baseline="central">ellipse</text>
<path d="M115.546,79.5458L115.546,2.16"  style="fill:none;stroke-width:2.16;stroke:rgb(0,0,0);" />
<path d="M121.85,79.792L135.235,3.88259"  style="fill:none;stroke-width:2.16;stroke:rgb(0,0,0);" />
<path d="M128.279,80.561L154.326,8.998"  style="fill:none;stroke-width:2.16;stroke:rgb(0,0,0);" />
<path d="M134.943,81.9486L172.239,17.3508"  style="fill:none;stroke-width:2.16;stroke:rgb(0,0,0);" />
<path d="M141.909,84.1276L188.429,28.6872"  style="fill:none;stroke-width:2.16;stroke:rgb(0,0,0);" />
<path d="M149.137,87.3591L202.404,42.6628"  style="fill:none;stroke-width:2.16;stroke:rgb(0,0,0);" />
<path d="M156.366,91.9783L213.741,58.8529"  style="fill:none;stroke-width:2.16;stroke:rgb(0,0,0);" />
<path d="M162.942,98.295L222.094,76.7656"  style="fill:none;stroke-width:2.16;stroke:rgb(0,0,0);" />
<path d="M167.751,106.341L227.209,95.8566"  style="fill:none;stroke-width:2.16;stroke:rgb(0,0,0);" />
<path d="M169.546,115.546L228.932,115.546"  style="fill:none;stroke-width:2.16;stroke:rgb(0,0,0);" />
<path d="M167.751,124.751L227.209,135.235"  style="fill:none;stroke-width:2.16;stroke:rgb(0,0,0);" />
<path d="M162.942,132.797L222.094,154.326"  style="fill:none;stroke-width:2.16;stroke:rgb(0,0,0);" />
<path d="M156.366,139.113L213.741,172.239"  style="fill:none;stroke-width:2.16;stroke:rgb(0,0,0);" />
<path d="M149.137,143.733L202.404,188.429"  style="fill:none;stroke-width:2.16;stroke:rgb(0,0,0);" />
<path d="M141.909,146.964L188.429,202.404"  style="fill:none;stroke-width:2.16;stroke:rgb(0,0,0);" />
<path d="M134.943,149.143L172.239,213.741"  style="fill:none;stroke-width:2.16;stroke:rgb(0,0,0);" />
<path d="M128.279,150.531L154.326,222.094"  style="fill:none;stroke-width:2.16;stroke:rgb(0,0,0);" />
<path d="M121.85,151.3L135.235,227.209"  style="fill:none;stroke-width:2.16;stroke:rgb(0,0,0);" />
<path d="M115.546,151.546L115.546,228.932"  style="fill:none;stroke-width:2.16;stroke:rgb(0,0,0);" />
<path d="M109.241,151.3L95.8566,227.209"  style="fill:none;stroke-width:2.16;stroke:rgb(0,0,0);" />
<path d="M102.812,150.531L76.7656,222.094"  style="fill:none;stroke-width:2.16;stroke:rgb(0,0,0);" />
<path d="M96.1485,149.143L58.8529,213.741"  style="fill:none;stroke-width:2.16;stroke:rgb(0,0,0);" />
<path d="M89.1828,146.964L42.6628,202.404"  style="fill:none;stroke-width:2.16;stroke:rgb(0,0,0);" />
<path d="M81.9542,143.733L28.6872,188.429"  style="fill:none;stroke-width:2.16;stroke:rgb(0,0,0);" />
<path d="M74.7257,139.113L17.3508,172.239"  style="fill:none;stroke-width:2.16;stroke:rgb(0,0,0);" />
<path d="M68.1494,132.797L8.998,154.326"  style="fill:none;stroke-width:2.16;stroke:rgb(0,0,0);" />
<path d="M63.341,124.751L3.88259,135.235"  style="fill:none;stroke-width:2.16;stroke:rgb(0,0,0);" />
<path d="M61.5458,115.546L2.16,115.546"  style="fill:none;stroke-width:2.16;stroke:rgb(0,0,0);" />
<path d="M63.341,106.341L3.88259,95.8566"  style="fill:none;stroke-width:2.16;stroke:rgb(0,0,0);" />
<path d="M68.1494,98.295L8.998,76.7656"  style="fill:none;stroke-width:2.16;stroke:rgb(0,0,0);" />
<path d="M74.7257,91.9783L17.3508,58.8529"  style="fill:none;stroke-width:2.16;stroke:rgb(0,0,0);" />
<path d="M81.9542,87.3591L28.6872,42.6628"  style="fill:none;stroke-width:2.16;stroke:rgb(0,0,0);" />
<path d="M89.1828,84.1276L42.6628,28.6872"  style="fill:none;stroke-width:2.16;stroke:rgb(0,0,0);" />
<path d="M96.1485,81.9486L58.8529,17.3508"  style="fill:none;stroke-width:2.16;stroke:rgb(0,0,0);" />
<path d="M102.812,80.561L76.7656,8.998"  style="fill:none;stroke-width:2.16;stroke:rgb(0,0,0);" />
<path d="M109.241,79.792L95.8566,3.88259"  style="fill:none;stroke-width:2.16;stroke:rgb(0,0,0);" />
</svg>