<svg xmlns='http://www.w3.org/2000/svg' style='font-size:initial;' viewBox="0 0 1022.64 618">
<polygon points="176.16,80.4 164.64,84.72 164.64,76.08" style="fill:rgb(0,0,0)"/>
<path d="M50.16,80.4L170.4,80.4"  style="fill:none;stroke-width:2.16;stroke:rgb(0,0,0);" />
<text x="113.16" y="80.4" text-anchor="middle" fill="rgb(0,0,0)" dominant-baseline="central">on top of</text>
<polygon points="374.16,80.4 362.64,84.72 362.64,76.08" style="fill:rgb(0,0,0)"/>
<path d="M248.16,80.4L368.4,80.4"  style="fill:none;stroke-width:2.16;stroke:rgb(0,0,0);" />
<text x="311.16" y="68.7" text-anchor="middle" fill="rgb(0,0,0)" dominant-baseline="central">above</text>
<text x="311.16" y="92.1" text-anchor="middle" fill="rgb(0,0,0)" dominant-baseline="central">below</text>
<polygon points="572.16,80.4 560.64,84.72 560.64,76.08" style="fill:rgb(0,0,0)"/>
<path d="M446.16,80.4L566.4,80.4"  style="fill:none;stroke-width:2.16;stroke:rgb(0,0,0);" />
<text x="509.16" y="68.7" text-anchor="middle" fill="rgb(0,0,0)" dominant-baseline="central">above</text>
<polygon points="770.16,80.4 758.64,84.72 758.64,76.08" style="fill:rgb(0,0,0)"/>
<path d="M644.16,80.4L764.4,80.4"  style="fill:none;stroke-width:2.16;stroke:rgb(0,0,0);" />
<text x="707.16" y="92.1" text-anchor="middle" fill="rgb(0,0,0)" dominant-baseline="central">below</text>
<polygon points="968.16,80.4 956.64,84.72 956.64,76.08" style="fill:rgb(0,0,0)"/>
<path d="M842.16,80.4L962.4,80.4"  style="fill:none;stroke-width:2.16;stroke:rgb(0,0,0);" />
<text x="905.16" y="60.24" text-anchor="middle" fill="rgb(0,0,0)" dominant-baseline="central">above</text>
<text x="905.16" y="80.4" text-anchor="middle" fill="rgb(0,0,0)" dominant-baseline="central">on top of</text>
<text x="905.16" y="100.56" text-anchor="middle" fill="rgb(0,0,0)" dominant-baseline="central">below</text>
<polygon points="176.16,224.4 164.64,228.72 164.64,220.08" style="fill:rgb(0,0,0)"/>
<path d="M50.16,224.4L170.4,224.4"  style="fill:none;stroke-width:2.16;stroke:rgb(0,0,0);" />
<text x="113.16" y="184.08" text-anchor="middle" fill="rgb(0,0,0)" dominant-baseline="central">way above</text>
<text x="113.16" y="204.24" text-anchor="middle" fill="rgb(0,0,0)" dominant-baseline="central">above</text>
<text x="113.16" y="224.4" text-anchor="middle" fill="rgb(0,0,0)" dominant-baseline="central">on the line</text>
<text x="113.16" y="244.56" text-anchor="middle" fill="rgb(0,0,0)" dominant-baseline="central">below</text>
<text x="113.16" y="264.72" text-anchor="middle" fill="rgb(0,0,0)" dominant-baseline="central">way below</text>
<polygon points="374.16,224.4 362.64,228.72 362.64,220.08" style="fill:rgb(0,0,0)"/>
<path d="M248.16,224.4L368.4,224.4"  style="fill:none;stroke-width:2.16;stroke:rgb(0,0,0);" />
<text x="311.16" y="192.54" text-anchor="middle" fill="rgb(0,0,0)" dominant-baseline="central">way above</text>
<text x="311.16" y="212.7" text-anchor="middle" fill="rgb(0,0,0)" dominant-baseline="central">above</text>
<text x="311.16" y="236.1" text-anchor="middle" fill="rgb(0,0,0)" dominant-baseline="central">below</text>
<text x="311.16" y="256.26" text-anchor="middle" fill="rgb(0,0,0)" dominant-baseline="central">way below</text>
<path d="M50.16,423.84L156.95,423.84L156.95,312.96L50.16,312.96Z"  style="fill:none;stroke-width:2.16;stroke:rgb(0,0,0);" />
<text x="103.555" y="328.08" text-anchor="middle" fill="rgb(0,0,0)" dominant-baseline="central">first line</text>
<text x="103.555" y="348.24" text-anchor="middle" fill="rgb(0,0,0)" dominant-baseline="central">second line</text>
<text x="103.555" y="368.4" text-anchor="middle" fill="rgb(0,0,0)" dominant-baseline="central">third line</text>
<text x="103.555" y="388.56" text-anchor="middle" fill="rgb(0,0,0)" dominant-baseline="central">fourth  line</text>
<text x="103.555" y="408.72" text-anchor="middle" fill="rgb(0,0,0)" dominant-baseline="central">fifth line</text>
<path d="M228.95,413.76L335.741,413.76L335.741,323.04L228.95,323.04Z"  style="fill:none;stroke-width:2.16;stroke:rgb(0,0,0);" />
<text x="282.346" y="338.16" text-anchor="middle" fill="rgb(0,0,0)" dominant-baseline="central">first line</text>
<text x="282.346" y="358.32" text-anchor="middle" fill="rgb(0,0,0)" dominant-baseline="central">second line</text>
<text x="282.346" y="378.48" text-anchor="middle" fill="rgb(0,0,0)" dominant-baseline="central">third line</text>
<text x="282.346" y="398.64" text-anchor="middle" fill="rgb(0,0,0)" dominant-baseline="central">fourth  line</text>
<path d="M407.741,403.68L514.531,403.68L514.531,333.12L407.741,333.12Z"  style="fill:none;stroke-width:2.16;stroke:rgb(0,0,0);" />
<text x="461.136" y="348.24" text-anchor="middle" fill="rgb(0,0,0)" dominant-baseline="central">first line</text>
<text x="461.136" y="368.4" text-anchor="middle" fill="rgb(0,0,0)" dominant-baseline="central">second line</text>
<text x="461.136" y="388.56" text-anchor="middle" fill="rgb(0,0,0)" dominant-baseline="central">third line</text>
<path d="M586.531,393.6L693.322,393.6L693.322,343.2L586.531,343.2Z"  style="fill:none;stroke-width:2.16;stroke:rgb(0,0,0);" />
<text x="639.926" y="358.32" text-anchor="middle" fill="rgb(0,0,0)" dominant-baseline="central">first line</text>
<text x="639.926" y="378.48" text-anchor="middle" fill="rgb(0,0,0)" dominant-baseline="central">second line</text>
<path d="M765.322,383.52L848.035,383.52L848.035,353.28L765.322,353.28Z"  style="fill:none;stroke-width:2.16;stroke:rgb(0,0,0);" />
<text x="806.678" y="368.4" text-anchor="middle" fill="rgb(0,0,0)" dominant-baseline="central">first line</text>
<path d="M50.16,567.84L175.037,567.84L175.037,456.96L50.16,456.96Z"  style="fill:none;stroke-width:2.16;stroke:rgb(0,0,0);" />
<text x="112.598" y="472.08" text-anchor="middle" fill="rgb(0,0,0)" dominant-baseline="central">first above</text>
<text x="112.598" y="492.24" text-anchor="middle" fill="rgb(0,0,0)" dominant-baseline="central">second above</text>
<text x="112.598" y="512.4" text-anchor="middle" fill="rgb(0,0,0)" dominant-baseline="central">third</text>
<circle cx="112.598" cy="512.4" r="2.16" style="fill:rgb(255,0,0);stroke-width:2.16;stroke:rgb(255,0,0);" />
<path d="M225.984,547.68L398.323,547.68L398.323,477.12L225.984,477.12Z"  style="fill:none;stroke-width:2.16;stroke:rgb(0,0,0);" />
<text x="312.154" y="492.24" text-anchor="middle" fill="rgb(0,0,0)" dominant-baseline="central">    3 leading spaces</text>
<text x="312.154" y="512.4" text-anchor="middle" fill="rgb(0,0,0)" dominant-baseline="central">&amp;</text>
<text x="312.154" y="532.56" text-anchor="middle" fill="rgb(0,0,0)" dominant-baseline="central">3 trailing spaces   </text>
</svg>